<?xml version="1.0" encoding="UTF-8" standalone="no"?><!DOCTYPE svg PUBLIC "-//W3C//DTD SVG 1.1//EN" "http://www.w3.org/Graphics/SVG/1.1/DTD/svg11.dtd"><svg width="100%" height="100%" viewBox="0 0 13 6" version="1.1" xmlns="http://www.w3.org/2000/svg" xmlns:xlink="http://www.w3.org/1999/xlink" xml:space="preserve" xmlns:serif="http://www.serif.com/" style="fill-rule:evenodd;clip-rule:evenodd;stroke-linejoin:round;stroke-miterlimit:2;"><g transform="matrix(0.24,0,0,0.24,-9.95717,-8.88912)"><g transform="matrix(1,0,0,1,685.039,23.622)"><g transform="matrix(1,0,0,1,-643.551,13.416)"><path d="M0,11.009c0,-6.08 4.929,-11.009 11.009,-11.009l30.983,0c6.079,0 11.008,4.929 11.008,11.009c-0,6.079 -4.929,11.008 -11.009,11.008l-30.983,0c-6.079,0 -11.008,-4.929 -11.008,-11.009Z" style="fill:#71b238;fill-rule:nonzero;"/></g></g><g transform="matrix(1,0,0,1,685.039,23.622)"><g transform="matrix(1,0,0,1,-643.551,13.416)"><rect x="6.805" y="10.911" width="5.544" height="2.212" style="fill:#fff;fill-rule:nonzero;"/></g></g><g transform="matrix(1,0,0,1,685.039,23.622)"><g transform="matrix(1,0,0,1,-643.551,13.416)"><path d="M16.659,9.595c1.073,0.075 1.939,0.243 2.597,0.504c0.658,0.261 1.136,0.616 1.435,1.064c0.298,0.448 0.448,1.003 0.448,1.666c-0,1.073 -0.378,1.895 -1.134,2.464c-0.756,0.565 -1.893,0.847 -3.409,0.847c-1.004,0 -2,-0.138 -2.989,-0.413l-0,-2.016c0.438,0.112 0.91,0.203 1.414,0.273c0.504,0.07 0.984,0.105 1.442,0.105c0.714,0 1.234,-0.1 1.561,-0.301c0.326,-0.205 0.49,-0.506 0.49,-0.903c-0,-0.275 -0.084,-0.499 -0.252,-0.672c-0.164,-0.173 -0.467,-0.31 -0.91,-0.413c-0.439,-0.107 -1.071,-0.184 -1.897,-0.231l-1.519,-0.077l0.378,-5.852l6.391,0l-0,2.072l-3.913,0l-0.133,1.883Z" style="fill:#fff;fill-rule:nonzero;"/></g></g><g transform="matrix(1,0,0,1,685.039,23.622)"><g transform="matrix(1,0,0,1,-643.551,13.416)"><path d="M26.586,16.14c-0.928,0 -1.724,-0.194 -2.387,-0.581c-0.658,-0.392 -1.164,-0.982 -1.519,-1.771c-0.354,-0.793 -0.532,-1.783 -0.532,-2.968c0,-1.185 0.178,-2.172 0.532,-2.961c0.355,-0.793 0.861,-1.384 1.519,-1.771c0.663,-0.392 1.459,-0.588 2.387,-0.588c0.929,0 1.725,0.196 2.387,0.588c0.663,0.387 1.172,0.978 1.526,1.771c0.355,0.789 0.532,1.776 0.532,2.961c0,1.181 -0.179,2.168 -0.539,2.961c-0.354,0.793 -0.863,1.386 -1.526,1.778c-0.662,0.387 -1.456,0.581 -2.38,0.581Zm0.007,-2.261c0.374,-0 0.684,-0.096 0.931,-0.287c0.248,-0.191 0.437,-0.511 0.567,-0.959c0.136,-0.448 0.203,-1.05 0.203,-1.806c0,-0.761 -0.067,-1.365 -0.203,-1.813c-0.13,-0.453 -0.319,-0.775 -0.567,-0.966c-0.247,-0.191 -0.557,-0.287 -0.931,-0.287c-0.373,-0 -0.686,0.096 -0.938,0.287c-0.247,0.191 -0.438,0.511 -0.574,0.959c-0.13,0.448 -0.196,1.05 -0.196,1.806c0,0.761 0.066,1.367 0.196,1.82c0.131,0.448 0.32,0.768 0.567,0.959c0.252,0.191 0.567,0.287 0.945,0.287Z" style="fill:#fff;fill-rule:nonzero;"/></g></g><g transform="matrix(1,0,0,1,685.039,23.622)"><g transform="matrix(1,0,0,1,-643.551,13.416)"><path d="M35.393,12.024c-0.617,-0 -1.158,-0.124 -1.624,-0.371c-0.467,-0.252 -0.831,-0.621 -1.093,-1.106c-0.256,-0.49 -0.385,-1.083 -0.385,-1.778c0,-0.695 0.129,-1.288 0.385,-1.778c0.262,-0.49 0.623,-0.861 1.085,-1.113c0.467,-0.252 1.011,-0.378 1.631,-0.378c0.616,0 1.155,0.126 1.617,0.378c0.467,0.252 0.829,0.623 1.085,1.113c0.262,0.49 0.392,1.083 0.392,1.778c0,0.695 -0.13,1.288 -0.392,1.778c-0.256,0.485 -0.618,0.854 -1.084,1.106c-0.462,0.247 -1.002,0.371 -1.617,0.371Zm0.776,3.976l4.921,-10.36l2.233,-0l-4.92,10.36l-2.233,0Zm-0.778,-5.635c0.304,0 0.542,-0.126 0.714,-0.378c0.178,-0.252 0.267,-0.658 0.267,-1.218c-0.001,-0.56 -0.089,-0.966 -0.267,-1.218c-0.172,-0.257 -0.41,-0.385 -0.714,-0.385c-0.303,0 -0.543,0.126 -0.721,0.378c-0.177,0.252 -0.266,0.658 -0.266,1.218c0,0.56 0.089,0.968 0.266,1.225c0.178,0.252 0.418,0.378 0.721,0.378Zm8.708,5.761c-0.616,0 -1.157,-0.124 -1.624,-0.371c-0.466,-0.252 -0.83,-0.623 -1.091,-1.113c-0.257,-0.49 -0.386,-1.083 -0.386,-1.778c0.001,-0.695 0.129,-1.288 0.386,-1.778c0.261,-0.49 0.623,-0.859 1.084,-1.106c0.467,-0.252 1.011,-0.378 1.631,-0.378c0.617,0 1.158,0.126 1.624,0.378c0.467,0.247 0.829,0.616 1.085,1.106c0.257,0.49 0.385,1.083 0.385,1.778c0,0.695 -0.128,1.288 -0.385,1.778c-0.256,0.49 -0.618,0.861 -1.085,1.113c-0.466,0.247 -1.008,0.371 -1.624,0.371Zm0,-1.659c0.304,0 0.542,-0.126 0.715,-0.378c0.177,-0.252 0.265,-0.658 0.265,-1.218c0,-0.56 -0.088,-0.968 -0.266,-1.225c-0.172,-0.257 -0.41,-0.385 -0.714,-0.385c-0.303,-0 -0.543,0.128 -0.721,0.385c-0.177,0.252 -0.266,0.658 -0.266,1.218c0,0.56 0.089,0.968 0.266,1.225c0.178,0.252 0.418,0.378 0.721,0.378Z" style="fill:#fff;fill-rule:nonzero;"/></g></g></g></svg>